{
	"patcher" : 	{
		"fileversion" : 1,
		"appversion" : 		{
			"major" : 7,
			"minor" : 1,
			"revision" : 0,
			"architecture" : "x86",
			"modernui" : 1
		}
,
		"rect" : [ 63.0, 104.0, 1259.0, 762.0 ],
		"bglocked" : 0,
		"openinpresentation" : 0,
		"default_fontsize" : 12.0,
		"default_fontface" : 0,
		"default_fontname" : "Arial",
		"gridonopen" : 1,
		"gridsize" : [ 15.0, 15.0 ],
		"gridsnaponopen" : 1,
		"objectsnaponopen" : 1,
		"statusbarvisible" : 2,
		"toolbarvisible" : 1,
		"lefttoolbarpinned" : 0,
		"toptoolbarpinned" : 0,
		"righttoolbarpinned" : 0,
		"bottomtoolbarpinned" : 0,
		"toolbars_unpinned_last_save" : 0,
		"tallnewobj" : 0,
		"boxanimatetime" : 200,
		"enablehscroll" : 1,
		"enablevscroll" : 1,
		"devicewidth" : 0.0,
		"description" : "",
		"digest" : "",
		"tags" : "",
		"style" : "",
		"subpatcher_template" : "",
		"boxes" : [ 			{
				"box" : 				{
					"id" : "obj-168",
					"maxclass" : "newobj",
					"numinlets" : 2,
					"numoutlets" : 1,
					"outlettype" : [ "int" ],
					"patcher" : 					{
						"fileversion" : 1,
						"appversion" : 						{
							"major" : 7,
							"minor" : 1,
							"revision" : 0,
							"architecture" : "x86",
							"modernui" : 1
						}
,
						"rect" : [ 88.0, 129.0, 640.0, 480.0 ],
						"bglocked" : 0,
						"openinpresentation" : 0,
						"default_fontsize" : 12.0,
						"default_fontface" : 0,
						"default_fontname" : "Arial",
						"gridonopen" : 1,
						"gridsize" : [ 15.0, 15.0 ],
						"gridsnaponopen" : 1,
						"objectsnaponopen" : 1,
						"statusbarvisible" : 2,
						"toolbarvisible" : 1,
						"lefttoolbarpinned" : 0,
						"toptoolbarpinned" : 0,
						"righttoolbarpinned" : 0,
						"bottomtoolbarpinned" : 0,
						"toolbars_unpinned_last_save" : 0,
						"tallnewobj" : 0,
						"boxanimatetime" : 200,
						"enablehscroll" : 1,
						"enablevscroll" : 1,
						"devicewidth" : 0.0,
						"description" : "",
						"digest" : "",
						"tags" : "",
						"style" : "",
						"subpatcher_template" : "",
						"boxes" : [ 							{
								"box" : 								{
									"id" : "obj-155",
									"maxclass" : "newobj",
									"numinlets" : 2,
									"numoutlets" : 2,
									"outlettype" : [ "", "" ],
									"patching_rect" : [ 50.0, 100.0, 45.0, 22.0 ],
									"style" : "",
									"text" : "zl.sum"
								}

							}
, 							{
								"box" : 								{
									"id" : "obj-154",
									"maxclass" : "newobj",
									"numinlets" : 2,
									"numoutlets" : 1,
									"outlettype" : [ "int" ],
									"patching_rect" : [ 52.5, 264.0, 29.5, 22.0 ],
									"style" : "",
									"text" : ">"
								}

							}
, 							{
								"box" : 								{
									"id" : "obj-153",
									"maxclass" : "newobj",
									"numinlets" : 3,
									"numoutlets" : 1,
									"outlettype" : [ "int" ],
									"patching_rect" : [ 84.833374, 188.0, 67.0, 22.0 ],
									"style" : "",
									"text" : "drunk 80 8"
								}

							}
, 							{
								"box" : 								{
									"comment" : "",
									"id" : "obj-158",
									"maxclass" : "inlet",
									"numinlets" : 0,
									"numoutlets" : 1,
									"outlettype" : [ "" ],
									"patching_rect" : [ 50.0, 40.0, 30.0, 30.0 ],
									"style" : ""
								}

							}
, 							{
								"box" : 								{
									"comment" : "",
									"id" : "obj-159",
									"maxclass" : "inlet",
									"numinlets" : 0,
									"numoutlets" : 1,
									"outlettype" : [ "bang" ],
									"patching_rect" : [ 84.833374, 40.0, 30.0, 30.0 ],
									"style" : ""
								}

							}
, 							{
								"box" : 								{
									"comment" : "",
									"id" : "obj-160",
									"maxclass" : "outlet",
									"numinlets" : 1,
									"numoutlets" : 0,
									"patching_rect" : [ 52.5, 345.999969, 30.0, 30.0 ],
									"style" : ""
								}

							}
 ],
						"lines" : [ 							{
								"patchline" : 								{
									"destination" : [ "obj-154", 1 ],
									"disabled" : 0,
									"hidden" : 0,
									"midpoints" : [ 94.333374, 250.999969, 72.5, 250.999969 ],
									"source" : [ "obj-153", 0 ]
								}

							}
, 							{
								"patchline" : 								{
									"destination" : [ "obj-160", 0 ],
									"disabled" : 0,
									"hidden" : 0,
									"source" : [ "obj-154", 0 ]
								}

							}
, 							{
								"patchline" : 								{
									"destination" : [ "obj-154", 0 ],
									"disabled" : 0,
									"hidden" : 0,
									"source" : [ "obj-155", 0 ]
								}

							}
, 							{
								"patchline" : 								{
									"destination" : [ "obj-155", 0 ],
									"disabled" : 0,
									"hidden" : 0,
									"source" : [ "obj-158", 0 ]
								}

							}
, 							{
								"patchline" : 								{
									"destination" : [ "obj-153", 0 ],
									"disabled" : 0,
									"hidden" : 0,
									"source" : [ "obj-159", 0 ]
								}

							}
 ]
					}
,
					"patching_rect" : [ 675.0, 893.333374, 59.0, 22.0 ],
					"saved_object_attributes" : 					{
						"description" : "",
						"digest" : "",
						"globalpatchername" : "",
						"style" : "",
						"tags" : ""
					}
,
					"style" : "",
					"text" : "p recDec"
				}

			}
, 			{
				"box" : 				{
					"id" : "obj-167",
					"maxclass" : "newobj",
					"numinlets" : 2,
					"numoutlets" : 1,
					"outlettype" : [ "int" ],
					"patcher" : 					{
						"fileversion" : 1,
						"appversion" : 						{
							"major" : 7,
							"minor" : 1,
							"revision" : 0,
							"architecture" : "x86",
							"modernui" : 1
						}
,
						"rect" : [ 88.0, 129.0, 640.0, 480.0 ],
						"bglocked" : 0,
						"openinpresentation" : 0,
						"default_fontsize" : 12.0,
						"default_fontface" : 0,
						"default_fontname" : "Arial",
						"gridonopen" : 1,
						"gridsize" : [ 15.0, 15.0 ],
						"gridsnaponopen" : 1,
						"objectsnaponopen" : 1,
						"statusbarvisible" : 2,
						"toolbarvisible" : 1,
						"lefttoolbarpinned" : 0,
						"toptoolbarpinned" : 0,
						"righttoolbarpinned" : 0,
						"bottomtoolbarpinned" : 0,
						"toolbars_unpinned_last_save" : 0,
						"tallnewobj" : 0,
						"boxanimatetime" : 200,
						"enablehscroll" : 1,
						"enablevscroll" : 1,
						"devicewidth" : 0.0,
						"description" : "",
						"digest" : "",
						"tags" : "",
						"style" : "",
						"subpatcher_template" : "",
						"boxes" : [ 							{
								"box" : 								{
									"id" : "obj-155",
									"maxclass" : "newobj",
									"numinlets" : 2,
									"numoutlets" : 2,
									"outlettype" : [ "", "" ],
									"patching_rect" : [ 50.0, 100.0, 45.0, 22.0 ],
									"style" : "",
									"text" : "zl.sum"
								}

							}
, 							{
								"box" : 								{
									"id" : "obj-154",
									"maxclass" : "newobj",
									"numinlets" : 2,
									"numoutlets" : 1,
									"outlettype" : [ "int" ],
									"patching_rect" : [ 52.5, 264.0, 29.5, 22.0 ],
									"style" : "",
									"text" : ">"
								}

							}
, 							{
								"box" : 								{
									"id" : "obj-153",
									"maxclass" : "newobj",
									"numinlets" : 3,
									"numoutlets" : 1,
									"outlettype" : [ "int" ],
									"patching_rect" : [ 84.833374, 188.0, 67.0, 22.0 ],
									"style" : "",
									"text" : "drunk 80 8"
								}

							}
, 							{
								"box" : 								{
									"comment" : "",
									"id" : "obj-158",
									"maxclass" : "inlet",
									"numinlets" : 0,
									"numoutlets" : 1,
									"outlettype" : [ "" ],
									"patching_rect" : [ 50.0, 40.0, 30.0, 30.0 ],
									"style" : ""
								}

							}
, 							{
								"box" : 								{
									"comment" : "",
									"id" : "obj-159",
									"maxclass" : "inlet",
									"numinlets" : 0,
									"numoutlets" : 1,
									"outlettype" : [ "bang" ],
									"patching_rect" : [ 84.833374, 40.0, 30.0, 30.0 ],
									"style" : ""
								}

							}
, 							{
								"box" : 								{
									"comment" : "",
									"id" : "obj-160",
									"maxclass" : "outlet",
									"numinlets" : 1,
									"numoutlets" : 0,
									"patching_rect" : [ 52.5, 345.999969, 30.0, 30.0 ],
									"style" : ""
								}

							}
 ],
						"lines" : [ 							{
								"patchline" : 								{
									"destination" : [ "obj-154", 1 ],
									"disabled" : 0,
									"hidden" : 0,
									"midpoints" : [ 94.333374, 250.999969, 72.5, 250.999969 ],
									"source" : [ "obj-153", 0 ]
								}

							}
, 							{
								"patchline" : 								{
									"destination" : [ "obj-160", 0 ],
									"disabled" : 0,
									"hidden" : 0,
									"source" : [ "obj-154", 0 ]
								}

							}
, 							{
								"patchline" : 								{
									"destination" : [ "obj-154", 0 ],
									"disabled" : 0,
									"hidden" : 0,
									"source" : [ "obj-155", 0 ]
								}

							}
, 							{
								"patchline" : 								{
									"destination" : [ "obj-155", 0 ],
									"disabled" : 0,
									"hidden" : 0,
									"source" : [ "obj-158", 0 ]
								}

							}
, 							{
								"patchline" : 								{
									"destination" : [ "obj-153", 0 ],
									"disabled" : 0,
									"hidden" : 0,
									"source" : [ "obj-159", 0 ]
								}

							}
 ]
					}
,
					"patching_rect" : [ 566.666626, 893.333374, 59.0, 22.0 ],
					"saved_object_attributes" : 					{
						"description" : "",
						"digest" : "",
						"globalpatchername" : "",
						"style" : "",
						"tags" : ""
					}
,
					"style" : "",
					"text" : "p recDec"
				}

			}
, 			{
				"box" : 				{
					"id" : "obj-166",
					"maxclass" : "newobj",
					"numinlets" : 2,
					"numoutlets" : 1,
					"outlettype" : [ "int" ],
					"patcher" : 					{
						"fileversion" : 1,
						"appversion" : 						{
							"major" : 7,
							"minor" : 1,
							"revision" : 0,
							"architecture" : "x86",
							"modernui" : 1
						}
,
						"rect" : [ 88.0, 129.0, 640.0, 480.0 ],
						"bglocked" : 0,
						"openinpresentation" : 0,
						"default_fontsize" : 12.0,
						"default_fontface" : 0,
						"default_fontname" : "Arial",
						"gridonopen" : 1,
						"gridsize" : [ 15.0, 15.0 ],
						"gridsnaponopen" : 1,
						"objectsnaponopen" : 1,
						"statusbarvisible" : 2,
						"toolbarvisible" : 1,
						"lefttoolbarpinned" : 0,
						"toptoolbarpinned" : 0,
						"righttoolbarpinned" : 0,
						"bottomtoolbarpinned" : 0,
						"toolbars_unpinned_last_save" : 0,
						"tallnewobj" : 0,
						"boxanimatetime" : 200,
						"enablehscroll" : 1,
						"enablevscroll" : 1,
						"devicewidth" : 0.0,
						"description" : "",
						"digest" : "",
						"tags" : "",
						"style" : "",
						"subpatcher_template" : "",
						"boxes" : [ 							{
								"box" : 								{
									"id" : "obj-155",
									"maxclass" : "newobj",
									"numinlets" : 2,
									"numoutlets" : 2,
									"outlettype" : [ "", "" ],
									"patching_rect" : [ 50.0, 100.0, 45.0, 22.0 ],
									"style" : "",
									"text" : "zl.sum"
								}

							}
, 							{
								"box" : 								{
									"id" : "obj-154",
									"maxclass" : "newobj",
									"numinlets" : 2,
									"numoutlets" : 1,
									"outlettype" : [ "int" ],
									"patching_rect" : [ 52.5, 264.0, 29.5, 22.0 ],
									"style" : "",
									"text" : ">"
								}

							}
, 							{
								"box" : 								{
									"id" : "obj-153",
									"maxclass" : "newobj",
									"numinlets" : 3,
									"numoutlets" : 1,
									"outlettype" : [ "int" ],
									"patching_rect" : [ 84.833374, 188.0, 67.0, 22.0 ],
									"style" : "",
									"text" : "drunk 80 8"
								}

							}
, 							{
								"box" : 								{
									"comment" : "",
									"id" : "obj-158",
									"maxclass" : "inlet",
									"numinlets" : 0,
									"numoutlets" : 1,
									"outlettype" : [ "" ],
									"patching_rect" : [ 50.0, 40.0, 30.0, 30.0 ],
									"style" : ""
								}

							}
, 							{
								"box" : 								{
									"comment" : "",
									"id" : "obj-159",
									"maxclass" : "inlet",
									"numinlets" : 0,
									"numoutlets" : 1,
									"outlettype" : [ "bang" ],
									"patching_rect" : [ 84.833374, 40.0, 30.0, 30.0 ],
									"style" : ""
								}

							}
, 							{
								"box" : 								{
									"comment" : "",
									"id" : "obj-160",
									"maxclass" : "outlet",
									"numinlets" : 1,
									"numoutlets" : 0,
									"patching_rect" : [ 52.5, 345.999969, 30.0, 30.0 ],
									"style" : ""
								}

							}
 ],
						"lines" : [ 							{
								"patchline" : 								{
									"destination" : [ "obj-154", 1 ],
									"disabled" : 0,
									"hidden" : 0,
									"midpoints" : [ 94.333374, 250.999969, 72.5, 250.999969 ],
									"source" : [ "obj-153", 0 ]
								}

							}
, 							{
								"patchline" : 								{
									"destination" : [ "obj-160", 0 ],
									"disabled" : 0,
									"hidden" : 0,
									"source" : [ "obj-154", 0 ]
								}

							}
, 							{
								"patchline" : 								{
									"destination" : [ "obj-154", 0 ],
									"disabled" : 0,
									"hidden" : 0,
									"source" : [ "obj-155", 0 ]
								}

							}
, 							{
								"patchline" : 								{
									"destination" : [ "obj-155", 0 ],
									"disabled" : 0,
									"hidden" : 0,
									"source" : [ "obj-158", 0 ]
								}

							}
, 							{
								"patchline" : 								{
									"destination" : [ "obj-153", 0 ],
									"disabled" : 0,
									"hidden" : 0,
									"source" : [ "obj-159", 0 ]
								}

							}
 ]
					}
,
					"patching_rect" : [ 462.666656, 893.333374, 59.0, 22.0 ],
					"saved_object_attributes" : 					{
						"description" : "",
						"digest" : "",
						"globalpatchername" : "",
						"style" : "",
						"tags" : ""
					}
,
					"style" : "",
					"text" : "p recDec"
				}

			}
, 			{
				"box" : 				{
					"id" : "obj-161",
					"maxclass" : "newobj",
					"numinlets" : 2,
					"numoutlets" : 1,
					"outlettype" : [ "int" ],
					"patcher" : 					{
						"fileversion" : 1,
						"appversion" : 						{
							"major" : 7,
							"minor" : 1,
							"revision" : 0,
							"architecture" : "x86",
							"modernui" : 1
						}
,
						"rect" : [ 88.0, 129.0, 640.0, 480.0 ],
						"bglocked" : 0,
						"openinpresentation" : 0,
						"default_fontsize" : 12.0,
						"default_fontface" : 0,
						"default_fontname" : "Arial",
						"gridonopen" : 1,
						"gridsize" : [ 15.0, 15.0 ],
						"gridsnaponopen" : 1,
						"objectsnaponopen" : 1,
						"statusbarvisible" : 2,
						"toolbarvisible" : 1,
						"lefttoolbarpinned" : 0,
						"toptoolbarpinned" : 0,
						"righttoolbarpinned" : 0,
						"bottomtoolbarpinned" : 0,
						"toolbars_unpinned_last_save" : 0,
						"tallnewobj" : 0,
						"boxanimatetime" : 200,
						"enablehscroll" : 1,
						"enablevscroll" : 1,
						"devicewidth" : 0.0,
						"description" : "",
						"digest" : "",
						"tags" : "",
						"style" : "",
						"subpatcher_template" : "",
						"boxes" : [ 							{
								"box" : 								{
									"id" : "obj-155",
									"maxclass" : "newobj",
									"numinlets" : 2,
									"numoutlets" : 2,
									"outlettype" : [ "", "" ],
									"patching_rect" : [ 50.0, 100.0, 45.0, 22.0 ],
									"style" : "",
									"text" : "zl.sum"
								}

							}
, 							{
								"box" : 								{
									"id" : "obj-154",
									"maxclass" : "newobj",
									"numinlets" : 2,
									"numoutlets" : 1,
									"outlettype" : [ "int" ],
									"patching_rect" : [ 52.5, 264.0, 29.5, 22.0 ],
									"style" : "",
									"text" : ">"
								}

							}
, 							{
								"box" : 								{
									"id" : "obj-153",
									"maxclass" : "newobj",
									"numinlets" : 3,
									"numoutlets" : 1,
									"outlettype" : [ "int" ],
									"patching_rect" : [ 84.833374, 188.0, 67.0, 22.0 ],
									"style" : "",
									"text" : "drunk 80 8"
								}

							}
, 							{
								"box" : 								{
									"comment" : "",
									"id" : "obj-158",
									"maxclass" : "inlet",
									"numinlets" : 0,
									"numoutlets" : 1,
									"outlettype" : [ "" ],
									"patching_rect" : [ 50.0, 40.0, 30.0, 30.0 ],
									"style" : ""
								}

							}
, 							{
								"box" : 								{
									"comment" : "",
									"id" : "obj-159",
									"maxclass" : "inlet",
									"numinlets" : 0,
									"numoutlets" : 1,
									"outlettype" : [ "bang" ],
									"patching_rect" : [ 84.833374, 40.0, 30.0, 30.0 ],
									"style" : ""
								}

							}
, 							{
								"box" : 								{
									"comment" : "",
									"id" : "obj-160",
									"maxclass" : "outlet",
									"numinlets" : 1,
									"numoutlets" : 0,
									"patching_rect" : [ 52.5, 345.999969, 30.0, 30.0 ],
									"style" : ""
								}

							}
 ],
						"lines" : [ 							{
								"patchline" : 								{
									"destination" : [ "obj-154", 1 ],
									"disabled" : 0,
									"hidden" : 0,
									"midpoints" : [ 94.333374, 250.999969, 72.5, 250.999969 ],
									"source" : [ "obj-153", 0 ]
								}

							}
, 							{
								"patchline" : 								{
									"destination" : [ "obj-160", 0 ],
									"disabled" : 0,
									"hidden" : 0,
									"source" : [ "obj-154", 0 ]
								}

							}
, 							{
								"patchline" : 								{
									"destination" : [ "obj-154", 0 ],
									"disabled" : 0,
									"hidden" : 0,
									"source" : [ "obj-155", 0 ]
								}

							}
, 							{
								"patchline" : 								{
									"destination" : [ "obj-155", 0 ],
									"disabled" : 0,
									"hidden" : 0,
									"source" : [ "obj-158", 0 ]
								}

							}
, 							{
								"patchline" : 								{
									"destination" : [ "obj-153", 0 ],
									"disabled" : 0,
									"hidden" : 0,
									"source" : [ "obj-159", 0 ]
								}

							}
 ]
					}
,
					"patching_rect" : [ 354.333344, 893.333374, 59.0, 22.0 ],
					"saved_object_attributes" : 					{
						"description" : "",
						"digest" : "",
						"globalpatchername" : "",
						"style" : "",
						"tags" : ""
					}
,
					"style" : "",
					"text" : "p recDec"
				}

			}
, 			{
				"box" : 				{
					"id" : "obj-152",
					"maxclass" : "newobj",
					"numinlets" : 1,
					"numoutlets" : 1,
					"outlettype" : [ "bang" ],
					"patching_rect" : [ 1126.666748, 416.0, 24.0, 22.0 ],
					"style" : "",
					"text" : "t b"
				}

			}
, 			{
				"box" : 				{
					"id" : "obj-151",
					"maxclass" : "newobj",
					"numinlets" : 2,
					"numoutlets" : 1,
					"outlettype" : [ "int" ],
					"patching_rect" : [ 1126.666748, 384.000031, 41.0, 22.0 ],
					"style" : "",
					"text" : ">= 35"
				}

			}
, 			{
				"box" : 				{
					"id" : "obj-150",
					"maxclass" : "newobj",
					"numinlets" : 2,
					"numoutlets" : 2,
					"outlettype" : [ "", "" ],
					"patching_rect" : [ 1126.666748, 350.666656, 45.0, 22.0 ],
					"style" : "",
					"text" : "zl.sum"
				}

			}
, 			{
				"box" : 				{
					"autosize" : 1,
					"columns" : 10,
					"id" : "obj-148",
					"maxclass" : "matrixctrl",
					"numinlets" : 1,
					"numoutlets" : 2,
					"outlettype" : [ "list", "list" ],
					"parameter_enable" : 0,
					"patching_rect" : [ 95.666565, 192.333328, 162.0, 34.0 ],
					"presentation_rect" : [ 0.0, 0.0, 162.0, 34.0 ],
					"rows" : 2,
					"style" : ""
				}

			}
, 			{
				"box" : 				{
					"id" : "obj-147",
					"maxclass" : "newobj",
					"numinlets" : 10,
					"numoutlets" : 3,
					"outlettype" : [ "signal", "signal", "list" ],
					"patching_rect" : [ 262.333313, 174.333328, 617.000122, 22.0 ],
					"style" : "",
					"text" : "matrix~ 10 2 1."
				}

			}
, 			{
				"box" : 				{
					"id" : "obj-135",
					"maxclass" : "newobj",
					"numinlets" : 1,
					"numoutlets" : 1,
					"outlettype" : [ "signal" ],
					"patching_rect" : [ 1353.003662, 250.333344, 100.0, 22.0 ],
					"style" : "",
					"text" : "tapout~ 1140000"
				}

			}
, 			{
				"box" : 				{
					"id" : "obj-136",
					"maxclass" : "newobj",
					"numinlets" : 1,
					"numoutlets" : 1,
					"outlettype" : [ "signal" ],
					"patching_rect" : [ 1242.003662, 250.333344, 94.0, 22.0 ],
					"style" : "",
					"text" : "tapout~ 540000"
				}

			}
, 			{
				"box" : 				{
					"id" : "obj-137",
					"maxclass" : "newobj",
					"numinlets" : 1,
					"numoutlets" : 1,
					"outlettype" : [ "signal" ],
					"patching_rect" : [ 1134.170288, 250.333344, 94.0, 22.0 ],
					"style" : "",
					"text" : "tapout~ 300000"
				}

			}
, 			{
				"box" : 				{
					"id" : "obj-138",
					"maxclass" : "comment",
					"numinlets" : 1,
					"numoutlets" : 0,
					"patching_rect" : [ 1395.337036, 176.333328, 48.0, 20.0 ],
					"style" : "",
					"text" : "19 min"
				}

			}
, 			{
				"box" : 				{
					"id" : "obj-139",
					"maxclass" : "comment",
					"numinlets" : 1,
					"numoutlets" : 0,
					"patching_rect" : [ 1284.336914, 176.333328, 48.0, 20.0 ],
					"style" : "",
					"text" : "9 min"
				}

			}
, 			{
				"box" : 				{
					"id" : "obj-140",
					"maxclass" : "newobj",
					"numinlets" : 1,
					"numoutlets" : 1,
					"outlettype" : [ "tapconnect" ],
					"patching_rect" : [ 1353.003662, 198.333328, 94.0, 22.0 ],
					"style" : "",
					"text" : "tapin~ 1200000"
				}

			}
, 			{
				"box" : 				{
					"id" : "obj-141",
					"maxclass" : "newobj",
					"numinlets" : 1,
					"numoutlets" : 1,
					"outlettype" : [ "tapconnect" ],
					"patching_rect" : [ 1242.003662, 198.333328, 87.0, 22.0 ],
					"style" : "",
					"text" : "tapin~ 600000"
				}

			}
, 			{
				"box" : 				{
					"id" : "obj-142",
					"maxclass" : "comment",
					"numinlets" : 1,
					"numoutlets" : 0,
					"patching_rect" : [ 1176.503662, 176.333328, 44.666664, 20.0 ],
					"style" : "",
					"text" : "5 min"
				}

			}
, 			{
				"box" : 				{
					"id" : "obj-143",
					"maxclass" : "comment",
					"numinlets" : 1,
					"numoutlets" : 0,
					"patching_rect" : [ 1065.50354, 176.333328, 44.666664, 20.0 ],
					"style" : "",
					"text" : "3 min"
				}

			}
, 			{
				"box" : 				{
					"id" : "obj-144",
					"maxclass" : "newobj",
					"numinlets" : 1,
					"numoutlets" : 1,
					"outlettype" : [ "signal" ],
					"patching_rect" : [ 1023.170166, 250.333344, 94.0, 22.0 ],
					"style" : "",
					"text" : "tapout~ 180000"
				}

			}
, 			{
				"box" : 				{
					"id" : "obj-145",
					"maxclass" : "newobj",
					"numinlets" : 1,
					"numoutlets" : 1,
					"outlettype" : [ "tapconnect" ],
					"patching_rect" : [ 1134.170288, 198.333328, 87.0, 22.0 ],
					"style" : "",
					"text" : "tapin~ 360000"
				}

			}
, 			{
				"box" : 				{
					"id" : "obj-146",
					"maxclass" : "newobj",
					"numinlets" : 1,
					"numoutlets" : 1,
					"outlettype" : [ "tapconnect" ],
					"patching_rect" : [ 1023.170166, 198.333328, 87.0, 22.0 ],
					"style" : "",
					"text" : "tapin~ 240000"
				}

			}
, 			{
				"box" : 				{
					"id" : "obj-134",
					"maxclass" : "ezdac~",
					"numinlets" : 2,
					"numoutlets" : 0,
					"patching_rect" : [ 78.666664, 863.666626, 127.666672, 127.666672 ],
					"style" : ""
				}

			}
, 			{
				"box" : 				{
					"id" : "obj-128",
					"maxclass" : "newobj",
					"numinlets" : 2,
					"numoutlets" : 1,
					"outlettype" : [ "float" ],
					"patching_rect" : [ 756.904724, 384.000031, 29.5, 22.0 ],
					"style" : "",
					"text" : "* 1."
				}

			}
, 			{
				"box" : 				{
					"id" : "obj-123",
					"maxclass" : "newobj",
					"numinlets" : 1,
					"numoutlets" : 1,
					"outlettype" : [ "" ],
					"patching_rect" : [ 964.833313, 350.666656, 146.0, 22.0 ],
					"style" : "",
					"text" : "if $i1 == 0 then -1. else 1."
				}

			}
, 			{
				"box" : 				{
					"id" : "obj-119",
					"maxclass" : "newobj",
					"numinlets" : 2,
					"numoutlets" : 1,
					"outlettype" : [ "int" ],
					"patching_rect" : [ 964.833313, 316.166656, 46.0, 22.0 ],
					"style" : "",
					"text" : "decide"
				}

			}
, 			{
				"box" : 				{
					"id" : "obj-118",
					"maxclass" : "newobj",
					"numinlets" : 2,
					"numoutlets" : 1,
					"outlettype" : [ "float" ],
					"patching_rect" : [ 699.095215, 384.000031, 34.0, 22.0 ],
					"style" : "",
					"text" : "/ 10."
				}

			}
, 			{
				"box" : 				{
					"id" : "obj-117",
					"maxclass" : "newobj",
					"numinlets" : 2,
					"numoutlets" : 1,
					"outlettype" : [ "float" ],
					"patching_rect" : [ 641.285706, 384.000031, 34.0, 22.0 ],
					"style" : "",
					"text" : "/ 10."
				}

			}
, 			{
				"box" : 				{
					"id" : "obj-116",
					"maxclass" : "newobj",
					"numinlets" : 2,
					"numoutlets" : 1,
					"outlettype" : [ "float" ],
					"patching_rect" : [ 583.476135, 384.000031, 34.0, 22.0 ],
					"style" : "",
					"text" : "/ 10."
				}

			}
, 			{
				"box" : 				{
					"id" : "obj-115",
					"maxclass" : "newobj",
					"numinlets" : 2,
					"numoutlets" : 1,
					"outlettype" : [ "int" ],
					"patching_rect" : [ 525.666626, 384.000031, 29.5, 22.0 ],
					"style" : "",
					"text" : "* 2"
				}

			}
, 			{
				"box" : 				{
					"id" : "obj-114",
					"maxclass" : "newobj",
					"numinlets" : 1,
					"numoutlets" : 8,
					"outlettype" : [ "int", "int", "int", "int", "int", "int", "int", "int" ],
					"patching_rect" : [ 525.666626, 349.500031, 423.666687, 22.0 ],
					"style" : "",
					"text" : "unpack i i i i i i i i"
				}

			}
, 			{
				"box" : 				{
					"id" : "obj-112",
					"maxclass" : "newobj",
					"numinlets" : 1,
					"numoutlets" : 1,
					"outlettype" : [ "" ],
					"patching_rect" : [ 262.333313, 337.500031, 80.0, 22.0 ],
					"style" : "",
					"text" : "vexpr $i1/2-1"
				}

			}
, 			{
				"box" : 				{
					"id" : "obj-111",
					"maxclass" : "newobj",
					"numinlets" : 1,
					"numoutlets" : 1,
					"outlettype" : [ "signal" ],
					"patching_rect" : [ 1274.166748, 139.333344, 100.0, 22.0 ],
					"style" : "",
					"text" : "tapout~ 1140000"
				}

			}
, 			{
				"box" : 				{
					"id" : "obj-110",
					"maxclass" : "newobj",
					"numinlets" : 1,
					"numoutlets" : 1,
					"outlettype" : [ "signal" ],
					"patching_rect" : [ 1163.166748, 139.333344, 94.0, 22.0 ],
					"style" : "",
					"text" : "tapout~ 540000"
				}

			}
, 			{
				"box" : 				{
					"id" : "obj-109",
					"maxclass" : "newobj",
					"numinlets" : 1,
					"numoutlets" : 1,
					"outlettype" : [ "signal" ],
					"patching_rect" : [ 1055.333374, 139.333344, 94.0, 22.0 ],
					"style" : "",
					"text" : "tapout~ 300000"
				}

			}
, 			{
				"box" : 				{
					"id" : "obj-105",
					"maxclass" : "comment",
					"numinlets" : 1,
					"numoutlets" : 0,
					"patching_rect" : [ 1316.500122, 65.333328, 48.0, 20.0 ],
					"style" : "",
					"text" : "19 min"
				}

			}
, 			{
				"box" : 				{
					"id" : "obj-106",
					"maxclass" : "comment",
					"numinlets" : 1,
					"numoutlets" : 0,
					"patching_rect" : [ 1205.5, 65.333328, 48.0, 20.0 ],
					"style" : "",
					"text" : "9 min"
				}

			}
, 			{
				"box" : 				{
					"id" : "obj-107",
					"maxclass" : "newobj",
					"numinlets" : 1,
					"numoutlets" : 1,
					"outlettype" : [ "tapconnect" ],
					"patching_rect" : [ 1274.166748, 87.333328, 94.0, 22.0 ],
					"style" : "",
					"text" : "tapin~ 1200000"
				}

			}
, 			{
				"box" : 				{
					"id" : "obj-108",
					"maxclass" : "newobj",
					"numinlets" : 1,
					"numoutlets" : 1,
					"outlettype" : [ "tapconnect" ],
					"patching_rect" : [ 1163.166748, 87.333328, 87.0, 22.0 ],
					"style" : "",
					"text" : "tapin~ 600000"
				}

			}
, 			{
				"box" : 				{
					"id" : "obj-104",
					"maxclass" : "comment",
					"numinlets" : 1,
					"numoutlets" : 0,
					"patching_rect" : [ 1097.666748, 65.333328, 44.666664, 20.0 ],
					"style" : "",
					"text" : "5 min"
				}

			}
, 			{
				"box" : 				{
					"id" : "obj-103",
					"maxclass" : "comment",
					"numinlets" : 1,
					"numoutlets" : 0,
					"patching_rect" : [ 986.666626, 65.333328, 44.666664, 20.0 ],
					"style" : "",
					"text" : "3 min"
				}

			}
, 			{
				"box" : 				{
					"id" : "obj-101",
					"maxclass" : "newobj",
					"numinlets" : 1,
					"numoutlets" : 1,
					"outlettype" : [ "signal" ],
					"patching_rect" : [ 944.333313, 139.333344, 94.0, 22.0 ],
					"style" : "",
					"text" : "tapout~ 180000"
				}

			}
, 			{
				"box" : 				{
					"id" : "obj-98",
					"maxclass" : "newobj",
					"numinlets" : 1,
					"numoutlets" : 1,
					"outlettype" : [ "tapconnect" ],
					"patching_rect" : [ 1055.333374, 87.333328, 87.0, 22.0 ],
					"style" : "",
					"text" : "tapin~ 360000"
				}

			}
, 			{
				"box" : 				{
					"id" : "obj-96",
					"maxclass" : "newobj",
					"numinlets" : 1,
					"numoutlets" : 1,
					"outlettype" : [ "tapconnect" ],
					"patching_rect" : [ 944.333313, 87.333328, 87.0, 22.0 ],
					"style" : "",
					"text" : "tapin~ 240000"
				}

			}
, 			{
				"box" : 				{
					"id" : "obj-95",
					"linecount" : 2,
					"maxclass" : "comment",
					"numinlets" : 1,
					"numoutlets" : 0,
					"patching_rect" : [ 695.333252, 305.166656, 156.0, 33.0 ],
					"style" : "",
					"text" : "left goes to matriix, right to playback"
				}

			}
, 			{
				"box" : 				{
					"id" : "obj-94",
					"linecount" : 2,
					"maxclass" : "comment",
					"numinlets" : 1,
					"numoutlets" : 0,
					"patching_rect" : [ 178.166626, 237.333328, 156.0, 33.0 ],
					"style" : "",
					"text" : "left goes to matriix, right to playback"
				}

			}
, 			{
				"box" : 				{
					"id" : "obj-92",
					"maxclass" : "newobj",
					"numinlets" : 2,
					"numoutlets" : 2,
					"outlettype" : [ "", "" ],
					"patching_rect" : [ 635.166748, 310.666656, 57.0, 22.0 ],
					"style" : "",
					"text" : "zl.slice 8"
				}

			}
, 			{
				"box" : 				{
					"id" : "obj-91",
					"maxclass" : "newobj",
					"numinlets" : 2,
					"numoutlets" : 2,
					"outlettype" : [ "", "" ],
					"patching_rect" : [ 336.166626, 301.5, 57.0, 22.0 ],
					"style" : "",
					"text" : "zl.slice 8"
				}

			}
, 			{
				"box" : 				{
					"id" : "obj-87",
					"maxclass" : "newobj",
					"numinlets" : 2,
					"numoutlets" : 1,
					"outlettype" : [ "int" ],
					"patching_rect" : [ 635.166687, 237.333328, 32.0, 22.0 ],
					"style" : "",
					"text" : "* 10"
				}

			}
, 			{
				"box" : 				{
					"id" : "obj-86",
					"maxclass" : "newobj",
					"numinlets" : 2,
					"numoutlets" : 1,
					"outlettype" : [ "int" ],
					"patching_rect" : [ 336.166626, 237.333328, 32.0, 22.0 ],
					"style" : "",
					"text" : "* 10"
				}

			}
, 			{
				"box" : 				{
					"autosize" : 1,
					"columns" : 2,
					"horizontalmargin" : 3,
					"id" : "obj-83",
					"maxclass" : "matrixctrl",
					"numinlets" : 1,
					"numoutlets" : 2,
					"outlettype" : [ "list", "list" ],
					"parameter_enable" : 0,
					"patching_rect" : [ 185.333328, 344.000031, 38.0, 66.0 ],
					"presentation_rect" : [ 0.0, 0.0, 38.0, 66.0 ],
					"style" : ""
				}

			}
, 			{
				"box" : 				{
					"id" : "obj-82",
					"maxclass" : "newobj",
					"numinlets" : 2,
					"numoutlets" : 5,
					"outlettype" : [ "signal", "signal", "signal", "signal", "list" ],
					"patching_rect" : [ 90.666664, 421.333374, 90.0, 22.0 ],
					"style" : "",
					"text" : "matrix~ 2 4 0.7"
				}

			}
, 			{
				"box" : 				{
					"id" : "obj-79",
					"maxclass" : "comment",
					"numinlets" : 1,
					"numoutlets" : 0,
					"patching_rect" : [ 1511.5, 555.630371, 83.333328, 20.0 ],
					"style" : "",
					"text" : "start, end, dur"
				}

			}
, 			{
				"box" : 				{
					"id" : "obj-80",
					"maxclass" : "message",
					"numinlets" : 2,
					"numoutlets" : 1,
					"outlettype" : [ "" ],
					"patching_rect" : [ 1524.666626, 577.630371, 57.0, 22.0 ],
					"style" : "",
					"text" : "$1 $2 $3"
				}

			}
, 			{
				"box" : 				{
					"id" : "obj-78",
					"maxclass" : "comment",
					"numinlets" : 1,
					"numoutlets" : 0,
					"patching_rect" : [ 1360.333374, 577.0, 83.333328, 20.0 ],
					"style" : "",
					"text" : "start, end, dur"
				}

			}
, 			{
				"box" : 				{
					"id" : "obj-76",
					"maxclass" : "message",
					"numinlets" : 2,
					"numoutlets" : 1,
					"outlettype" : [ "" ],
					"patching_rect" : [ 1299.0, 577.0, 57.0, 22.0 ],
					"style" : "",
					"text" : "$1 $2 $3"
				}

			}
, 			{
				"box" : 				{
					"id" : "obj-72",
					"maxclass" : "newobj",
					"numinlets" : 1,
					"numoutlets" : 1,
					"outlettype" : [ "" ],
					"patching_rect" : [ 1064.170166, 445.333344, 117.0, 22.0 ],
					"style" : "",
					"text" : "prepend timestretch"
				}

			}
, 			{
				"box" : 				{
					"id" : "obj-67",
					"maxclass" : "newobj",
					"numinlets" : 2,
					"numoutlets" : 1,
					"outlettype" : [ "int" ],
					"patching_rect" : [ 1064.170166, 410.666687, 46.0, 22.0 ],
					"style" : "",
					"text" : "decide"
				}

			}
, 			{
				"box" : 				{
					"id" : "obj-66",
					"maxclass" : "gain~",
					"numinlets" : 1,
					"numoutlets" : 2,
					"outlettype" : [ "signal", "int" ],
					"parameter_enable" : 0,
					"patching_rect" : [ 1498.0, 651.333252, 22.0, 140.0 ],
					"style" : ""
				}

			}
, 			{
				"box" : 				{
					"id" : "obj-65",
					"maxclass" : "gain~",
					"numinlets" : 1,
					"numoutlets" : 2,
					"outlettype" : [ "signal", "int" ],
					"parameter_enable" : 0,
					"patching_rect" : [ 1270.666748, 651.333252, 22.0, 140.0 ],
					"style" : ""
				}

			}
, 			{
				"box" : 				{
					"id" : "obj-64",
					"maxclass" : "gain~",
					"numinlets" : 1,
					"numoutlets" : 2,
					"outlettype" : [ "signal", "int" ],
					"parameter_enable" : 0,
					"patching_rect" : [ 1064.170166, 651.333252, 22.0, 140.0 ],
					"style" : ""
				}

			}
, 			{
				"box" : 				{
					"id" : "obj-63",
					"maxclass" : "toggle",
					"numinlets" : 1,
					"numoutlets" : 1,
					"outlettype" : [ "int" ],
					"parameter_enable" : 0,
					"patching_rect" : [ 675.0, 937.333374, 24.0, 24.0 ],
					"style" : ""
				}

			}
, 			{
				"box" : 				{
					"id" : "obj-62",
					"maxclass" : "toggle",
					"numinlets" : 1,
					"numoutlets" : 1,
					"outlettype" : [ "int" ],
					"parameter_enable" : 0,
					"patching_rect" : [ 566.666626, 937.333374, 24.0, 24.0 ],
					"style" : ""
				}

			}
, 			{
				"box" : 				{
					"id" : "obj-61",
					"maxclass" : "toggle",
					"numinlets" : 1,
					"numoutlets" : 1,
					"outlettype" : [ "int" ],
					"parameter_enable" : 0,
					"patching_rect" : [ 462.666656, 937.333374, 24.0, 24.0 ],
					"style" : ""
				}

			}
, 			{
				"box" : 				{
					"id" : "obj-60",
					"maxclass" : "toggle",
					"numinlets" : 1,
					"numoutlets" : 1,
					"outlettype" : [ "int" ],
					"parameter_enable" : 0,
					"patching_rect" : [ 354.333344, 937.333374, 24.0, 24.0 ],
					"style" : ""
				}

			}
, 			{
				"box" : 				{
					"id" : "obj-58",
					"maxclass" : "newobj",
					"numinlets" : 1,
					"numoutlets" : 2,
					"outlettype" : [ "signal", "bang" ],
					"patching_rect" : [ 1498.0, 612.333313, 64.0, 22.0 ],
					"style" : "",
					"text" : "play~ art4"
				}

			}
, 			{
				"box" : 				{
					"id" : "obj-57",
					"maxclass" : "gain~",
					"numinlets" : 1,
					"numoutlets" : 2,
					"outlettype" : [ "signal", "int" ],
					"parameter_enable" : 0,
					"patching_rect" : [ 862.333252, 651.333252, 22.0, 140.0 ],
					"style" : ""
				}

			}
, 			{
				"box" : 				{
					"id" : "obj-56",
					"maxclass" : "newobj",
					"numinlets" : 2,
					"numoutlets" : 2,
					"outlettype" : [ "", "" ],
					"patching_rect" : [ 336.166626, 271.333374, 70.0, 22.0 ],
					"style" : "",
					"text" : "zl.group 16"
				}

			}
, 			{
				"box" : 				{
					"id" : "obj-54",
					"maxclass" : "newobj",
					"numinlets" : 2,
					"numoutlets" : 2,
					"outlettype" : [ "", "" ],
					"patching_rect" : [ 635.166748, 271.333374, 70.0, 22.0 ],
					"style" : "",
					"text" : "zl.group 16"
				}

			}
, 			{
				"box" : 				{
					"id" : "obj-52",
					"maxclass" : "newobj",
					"numinlets" : 1,
					"numoutlets" : 2,
					"outlettype" : [ "signal", "bang" ],
					"patching_rect" : [ 1270.666748, 612.333313, 64.0, 22.0 ],
					"style" : "",
					"text" : "play~ art3"
				}

			}
, 			{
				"box" : 				{
					"attr" : "timestretch",
					"fontface" : 0,
					"fontname" : "Arial",
					"fontsize" : 13.0,
					"id" : "obj-46",
					"maxclass" : "attrui",
					"numinlets" : 1,
					"numoutlets" : 1,
					"outlettype" : [ "" ],
					"patching_rect" : [ 1064.170166, 479.630371, 150.0, 23.0 ],
					"style" : ""
				}

			}
, 			{
				"box" : 				{
					"format" : 6,
					"id" : "obj-48",
					"maxclass" : "flonum",
					"numinlets" : 1,
					"numoutlets" : 2,
					"outlettype" : [ "", "bang" ],
					"parameter_enable" : 1,
					"patching_rect" : [ 1110.670166, 524.630371, 50.0, 22.0 ],
					"saved_attribute_attributes" : 					{
						"valueof" : 						{
							"parameter_longname" : "number",
							"parameter_shortname" : "number",
							"parameter_type" : 3,
							"parameter_initial_enable" : 1,
							"parameter_initial" : [ 1 ],
							"parameter_invisible" : 1
						}

					}
,
					"style" : "",
					"varname" : "number"
				}

			}
, 			{
				"box" : 				{
					"id" : "obj-50",
					"maxclass" : "newobj",
					"numinlets" : 1,
					"numoutlets" : 1,
					"outlettype" : [ "signal" ],
					"patching_rect" : [ 1110.670166, 574.630371, 45.0, 22.0 ],
					"style" : "",
					"text" : "sig~ 1"
				}

			}
, 			{
				"box" : 				{
					"fontface" : 0,
					"fontname" : "Arial",
					"fontsize" : 12.0,
					"id" : "obj-24",
					"maxclass" : "newobj",
					"numinlets" : 3,
					"numoutlets" : 2,
					"outlettype" : [ "signal", "signal" ],
					"patching_rect" : [ 1064.170166, 612.333313, 136.0, 22.0 ],
					"saved_object_attributes" : 					{
						"basictuning" : 440,
						"followglobaltempo" : 0,
						"formantcorrection" : 0,
						"loopend" : [ 0.0, "ms" ],
						"loopstart" : [ 0.0, "ms" ],
						"mode" : "basic",
						"originallength" : [ 0.0, "ticks" ],
						"originaltempo" : 120.0,
						"phase" : [ 0.0, "ticks" ],
						"pitchcorrection" : 0,
						"quality" : "basic",
						"timestretch" : [ 0 ]
					}
,
					"style" : "",
					"text" : "groove~ art2 1 @loop 1"
				}

			}
, 			{
				"box" : 				{
					"format" : 6,
					"id" : "obj-55",
					"maxclass" : "flonum",
					"numinlets" : 1,
					"numoutlets" : 2,
					"outlettype" : [ "", "bang" ],
					"parameter_enable" : 0,
					"patching_rect" : [ 921.333252, 524.333313, 50.0, 22.0 ],
					"style" : ""
				}

			}
, 			{
				"box" : 				{
					"id" : "obj-53",
					"maxclass" : "number",
					"numinlets" : 1,
					"numoutlets" : 2,
					"outlettype" : [ "", "bang" ],
					"parameter_enable" : 0,
					"patching_rect" : [ 801.333252, 524.333313, 50.0, 22.0 ],
					"style" : ""
				}

			}
, 			{
				"box" : 				{
					"id" : "obj-51",
					"maxclass" : "message",
					"numinlets" : 2,
					"numoutlets" : 1,
					"outlettype" : [ "" ],
					"patching_rect" : [ 801.333252, 612.333313, 53.0, 22.0 ],
					"style" : "",
					"text" : "rows $1"
				}

			}
, 			{
				"box" : 				{
					"format" : 6,
					"id" : "obj-49",
					"maxclass" : "flonum",
					"numinlets" : 1,
					"numoutlets" : 2,
					"outlettype" : [ "", "bang" ],
					"parameter_enable" : 0,
					"patching_rect" : [ 980.333252, 524.333313, 50.0, 22.0 ],
					"style" : ""
				}

			}
, 			{
				"box" : 				{
					"format" : 6,
					"id" : "obj-47",
					"maxclass" : "flonum",
					"numinlets" : 1,
					"numoutlets" : 2,
					"outlettype" : [ "", "bang" ],
					"parameter_enable" : 0,
					"patching_rect" : [ 862.333252, 524.333313, 50.0, 22.0 ],
					"style" : ""
				}

			}
, 			{
				"box" : 				{
					"id" : "obj-45",
					"maxclass" : "newobj",
					"numinlets" : 2,
					"numoutlets" : 1,
					"outlettype" : [ "signal" ],
					"patching_rect" : [ 921.333252, 563.333313, 54.0, 22.0 ],
					"style" : "",
					"text" : "phasor~"
				}

			}
, 			{
				"box" : 				{
					"id" : "obj-44",
					"maxclass" : "newobj",
					"numinlets" : 2,
					"numoutlets" : 1,
					"outlettype" : [ "signal" ],
					"patching_rect" : [ 862.333252, 563.333313, 54.0, 22.0 ],
					"style" : "",
					"text" : "phasor~"
				}

			}
, 			{
				"box" : 				{
					"id" : "obj-43",
					"maxclass" : "newobj",
					"numinlets" : 4,
					"numoutlets" : 1,
					"outlettype" : [ "signal" ],
					"patching_rect" : [ 862.333252, 612.333313, 133.0, 22.0 ],
					"style" : "",
					"text" : "2d.wave~ art1 0. 0. 1 1"
				}

			}
, 			{
				"box" : 				{
					"id" : "obj-39",
					"maxclass" : "message",
					"numinlets" : 2,
					"numoutlets" : 1,
					"outlettype" : [ "" ],
					"patching_rect" : [ 277.666656, 933.333313, 37.0, 22.0 ],
					"style" : "",
					"text" : "open"
				}

			}
, 			{
				"box" : 				{
					"id" : "obj-37",
					"maxclass" : "toggle",
					"numinlets" : 1,
					"numoutlets" : 1,
					"outlettype" : [ "int" ],
					"parameter_enable" : 0,
					"patching_rect" : [ 237.666656, 874.666626, 52.0, 52.0 ],
					"style" : ""
				}

			}
, 			{
				"box" : 				{
					"id" : "obj-35",
					"maxclass" : "newobj",
					"numinlets" : 2,
					"numoutlets" : 1,
					"outlettype" : [ "signal" ],
					"patching_rect" : [ 237.666656, 969.333313, 71.0, 22.0 ],
					"style" : "",
					"text" : "sfrecord~ 2"
				}

			}
, 			{
				"box" : 				{
					"id" : "obj-34",
					"linecount" : 3,
					"maxclass" : "comment",
					"numinlets" : 1,
					"numoutlets" : 0,
					"patching_rect" : [ 727.0, 944.333313, 150.0, 47.0 ],
					"style" : "",
					"text" : "insert routing based on probabilities triggered by onset detection"
				}

			}
, 			{
				"box" : 				{
					"id" : "obj-31",
					"maxclass" : "newobj",
					"numinlets" : 3,
					"numoutlets" : 1,
					"outlettype" : [ "signal" ],
					"patching_rect" : [ 649.0, 969.333313, 76.0, 22.0 ],
					"style" : "",
					"text" : "record~ art4"
				}

			}
, 			{
				"box" : 				{
					"id" : "obj-32",
					"maxclass" : "newobj",
					"numinlets" : 3,
					"numoutlets" : 1,
					"outlettype" : [ "signal" ],
					"patching_rect" : [ 540.666626, 969.333313, 76.0, 22.0 ],
					"style" : "",
					"text" : "record~ art3"
				}

			}
, 			{
				"box" : 				{
					"id" : "obj-30",
					"maxclass" : "newobj",
					"numinlets" : 3,
					"numoutlets" : 1,
					"outlettype" : [ "signal" ],
					"patching_rect" : [ 436.666656, 969.333313, 76.0, 22.0 ],
					"style" : "",
					"text" : "record~ art2"
				}

			}
, 			{
				"box" : 				{
					"id" : "obj-29",
					"maxclass" : "newobj",
					"numinlets" : 3,
					"numoutlets" : 1,
					"outlettype" : [ "signal" ],
					"patching_rect" : [ 328.333344, 969.333313, 76.0, 22.0 ],
					"style" : "",
					"text" : "record~ art1"
				}

			}
, 			{
				"box" : 				{
					"id" : "obj-27",
					"maxclass" : "newobj",
					"numinlets" : 1,
					"numoutlets" : 3,
					"outlettype" : [ "float", "float", "bang" ],
					"patching_rect" : [ 561.333374, 204.000015, 166.666656, 22.0 ],
					"style" : "",
					"text" : "fzero~"
				}

			}
, 			{
				"box" : 				{
					"id" : "obj-26",
					"maxclass" : "newobj",
					"numinlets" : 1,
					"numoutlets" : 3,
					"outlettype" : [ "float", "float", "bang" ],
					"patching_rect" : [ 262.333313, 204.000015, 166.666656, 22.0 ],
					"style" : "",
					"text" : "fzero~"
				}

			}
, 			{
				"box" : 				{
					"id" : "obj-25",
					"linecount" : 2,
					"maxclass" : "comment",
					"numinlets" : 1,
					"numoutlets" : 0,
					"patching_rect" : [ 69.333328, 118.999992, 154.0, 33.0 ],
					"style" : "",
					"text" : "Bringing in audio from two microphones"
				}

			}
, 			{
				"box" : 				{
					"id" : "obj-23",
					"maxclass" : "message",
					"numinlets" : 2,
					"numoutlets" : 1,
					"outlettype" : [ "" ],
					"patching_rect" : [ 90.666664, 94.999992, 33.0, 22.0 ],
					"style" : "",
					"text" : "stop"
				}

			}
, 			{
				"box" : 				{
					"id" : "obj-21",
					"maxclass" : "message",
					"numinlets" : 2,
					"numoutlets" : 1,
					"outlettype" : [ "" ],
					"patching_rect" : [ 8.000007, 94.999992, 74.0, 22.0 ],
					"style" : "",
					"text" : "startwindow"
				}

			}
, 			{
				"box" : 				{
					"id" : "obj-19",
					"maxclass" : "newobj",
					"numinlets" : 1,
					"numoutlets" : 2,
					"outlettype" : [ "signal", "signal" ],
					"patching_rect" : [ 8.000007, 130.666672, 57.0, 22.0 ],
					"style" : "",
					"text" : "adc~ 1 2"
				}

			}
, 			{
				"box" : 				{
					"buffername" : "art4",
					"id" : "obj-18",
					"maxclass" : "waveform~",
					"numinlets" : 5,
					"numoutlets" : 6,
					"outlettype" : [ "float", "float", "float", "float", "list", "" ],
					"patching_rect" : [ 603.0, 40.0, 138.666656, 44.0 ],
					"style" : ""
				}

			}
, 			{
				"box" : 				{
					"buffername" : "art3",
					"id" : "obj-17",
					"maxclass" : "waveform~",
					"numinlets" : 5,
					"numoutlets" : 6,
					"outlettype" : [ "float", "float", "float", "float", "list", "" ],
					"patching_rect" : [ 459.0, 40.0, 138.666656, 44.0 ],
					"style" : ""
				}

			}
, 			{
				"box" : 				{
					"buffername" : "art2",
					"id" : "obj-16",
					"maxclass" : "waveform~",
					"numinlets" : 5,
					"numoutlets" : 6,
					"outlettype" : [ "float", "float", "float", "float", "list", "" ],
					"patching_rect" : [ 315.0, 40.0, 138.666656, 44.0 ],
					"style" : ""
				}

			}
, 			{
				"box" : 				{
					"buffername" : "art1",
					"id" : "obj-15",
					"maxclass" : "waveform~",
					"numinlets" : 5,
					"numoutlets" : 6,
					"outlettype" : [ "float", "float", "float", "float", "list", "" ],
					"patching_rect" : [ 171.0, 40.0, 138.666656, 44.0 ],
					"style" : ""
				}

			}
, 			{
				"box" : 				{
					"id" : "obj-14",
					"linecount" : 7,
					"maxclass" : "comment",
					"numinlets" : 1,
					"numoutlets" : 0,
					"patching_rect" : [ 1464.666626, 191.0, 162.0, 100.0 ],
					"style" : "",
					"text" : "Decisions:\n- computer decides when to record to a buffer, and to which buffer\n- computer decides how to play back or distort buffer contents"
				}

			}
, 			{
				"box" : 				{
					"id" : "obj-12",
					"maxclass" : "newobj",
					"numinlets" : 1,
					"numoutlets" : 2,
					"outlettype" : [ "float", "bang" ],
					"patching_rect" : [ 669.666626, 11.0, 72.0, 22.0 ],
					"style" : "",
					"text" : "buffer~ art4"
				}

			}
, 			{
				"box" : 				{
					"id" : "obj-11",
					"maxclass" : "newobj",
					"numinlets" : 1,
					"numoutlets" : 2,
					"outlettype" : [ "float", "bang" ],
					"patching_rect" : [ 525.666626, 11.0, 72.0, 22.0 ],
					"style" : "",
					"text" : "buffer~ art3"
				}

			}
, 			{
				"box" : 				{
					"id" : "obj-10",
					"maxclass" : "newobj",
					"numinlets" : 1,
					"numoutlets" : 2,
					"outlettype" : [ "float", "bang" ],
					"patching_rect" : [ 381.666656, 11.0, 72.0, 22.0 ],
					"style" : "",
					"text" : "buffer~ art2"
				}

			}
, 			{
				"box" : 				{
					"id" : "obj-9",
					"maxclass" : "newobj",
					"numinlets" : 1,
					"numoutlets" : 2,
					"outlettype" : [ "float", "bang" ],
					"patching_rect" : [ 237.666656, 11.0, 72.0, 22.0 ],
					"style" : "",
					"text" : "buffer~ art1"
				}

			}
, 			{
				"box" : 				{
					"id" : "obj-8",
					"linecount" : 11,
					"maxclass" : "comment",
					"numinlets" : 1,
					"numoutlets" : 0,
					"patching_rect" : [ 1464.666626, 35.0, 150.0, 154.0 ],
					"style" : "",
					"text" : "Objective:\nMake a piece of approximately 73 minutes in duration using improvisations on found objects. Make the computer an \"autonomous\" agent based on incoming signal in how it treats the signals and buffers."
				}

			}
, 			{
				"box" : 				{
					"id" : "obj-6",
					"linecount" : 2,
					"maxclass" : "comment",
					"numinlets" : 1,
					"numoutlets" : 0,
					"patching_rect" : [ 3.0, 51.0, 150.0, 33.0 ],
					"style" : "",
					"text" : "Aka: Post Hoc Ergo Proctor Hoc"
				}

			}
, 			{
				"box" : 				{
					"id" : "obj-4",
					"linecount" : 3,
					"maxclass" : "comment",
					"numinlets" : 1,
					"numoutlets" : 0,
					"patching_rect" : [ 3.0, 2.0, 156.0, 47.0 ],
					"style" : "",
					"text" : "Free Love Festival Bullshit Piece about Shit and Fuck The Arts"
				}

			}
 ],
		"lines" : [ 			{
				"patchline" : 				{
					"destination" : [ "obj-147", 2 ],
					"disabled" : 0,
					"hidden" : 0,
					"midpoints" : [ 953.833313, 171.0, 404.722229, 171.0 ],
					"source" : [ "obj-101", 0 ]
				}

			}
, 			{
				"patchline" : 				{
					"destination" : [ "obj-111", 0 ],
					"disabled" : 0,
					"hidden" : 0,
					"source" : [ "obj-107", 0 ]
				}

			}
, 			{
				"patchline" : 				{
					"destination" : [ "obj-110", 0 ],
					"disabled" : 0,
					"hidden" : 0,
					"source" : [ "obj-108", 0 ]
				}

			}
, 			{
				"patchline" : 				{
					"destination" : [ "obj-147", 3 ],
					"disabled" : 0,
					"hidden" : 0,
					"midpoints" : [ 1064.833374, 162.0, 1038.0, 162.0, 1038.0, 126.0, 471.166687, 126.0 ],
					"source" : [ "obj-109", 0 ]
				}

			}
, 			{
				"patchline" : 				{
					"destination" : [ "obj-147", 4 ],
					"disabled" : 0,
					"hidden" : 0,
					"midpoints" : [ 1172.666748, 162.0, 1149.0, 162.0, 1149.0, 126.0, 537.611145, 126.0 ],
					"source" : [ "obj-110", 0 ]
				}

			}
, 			{
				"patchline" : 				{
					"destination" : [ "obj-147", 5 ],
					"disabled" : 0,
					"hidden" : 0,
					"midpoints" : [ 1283.666748, 162.0, 1257.0, 162.0, 1257.0, 126.0, 604.055603, 126.0 ],
					"source" : [ "obj-111", 0 ]
				}

			}
, 			{
				"patchline" : 				{
					"destination" : [ "obj-115", 0 ],
					"disabled" : 0,
					"hidden" : 0,
					"source" : [ "obj-114", 0 ]
				}

			}
, 			{
				"patchline" : 				{
					"destination" : [ "obj-116", 0 ],
					"disabled" : 0,
					"hidden" : 0,
					"source" : [ "obj-114", 1 ]
				}

			}
, 			{
				"patchline" : 				{
					"destination" : [ "obj-117", 0 ],
					"disabled" : 0,
					"hidden" : 0,
					"source" : [ "obj-114", 2 ]
				}

			}
, 			{
				"patchline" : 				{
					"destination" : [ "obj-118", 0 ],
					"disabled" : 0,
					"hidden" : 0,
					"source" : [ "obj-114", 3 ]
				}

			}
, 			{
				"patchline" : 				{
					"destination" : [ "obj-128", 0 ],
					"disabled" : 0,
					"hidden" : 0,
					"source" : [ "obj-114", 4 ]
				}

			}
, 			{
				"patchline" : 				{
					"destination" : [ "obj-53", 0 ],
					"disabled" : 0,
					"hidden" : 0,
					"midpoints" : [ 535.166626, 510.0, 810.833252, 510.0 ],
					"source" : [ "obj-115", 0 ]
				}

			}
, 			{
				"patchline" : 				{
					"destination" : [ "obj-47", 0 ],
					"disabled" : 0,
					"hidden" : 0,
					"midpoints" : [ 592.976135, 510.0, 871.833252, 510.0 ],
					"source" : [ "obj-116", 0 ]
				}

			}
, 			{
				"patchline" : 				{
					"destination" : [ "obj-55", 0 ],
					"disabled" : 0,
					"hidden" : 0,
					"midpoints" : [ 650.785706, 510.0, 930.833252, 510.0 ],
					"source" : [ "obj-117", 0 ]
				}

			}
, 			{
				"patchline" : 				{
					"destination" : [ "obj-49", 0 ],
					"disabled" : 0,
					"hidden" : 0,
					"midpoints" : [ 708.595215, 510.0, 989.833252, 510.0 ],
					"source" : [ "obj-118", 0 ]
				}

			}
, 			{
				"patchline" : 				{
					"destination" : [ "obj-123", 0 ],
					"disabled" : 0,
					"hidden" : 0,
					"source" : [ "obj-119", 0 ]
				}

			}
, 			{
				"patchline" : 				{
					"destination" : [ "obj-128", 1 ],
					"disabled" : 0,
					"hidden" : 0,
					"midpoints" : [ 974.333313, 384.0, 786.0, 384.0, 786.0, 381.0, 776.904724, 381.0 ],
					"source" : [ "obj-123", 0 ]
				}

			}
, 			{
				"patchline" : 				{
					"destination" : [ "obj-48", 0 ],
					"disabled" : 0,
					"hidden" : 0,
					"midpoints" : [ 766.404724, 510.0, 1050.0, 510.0, 1050.0, 519.0, 1120.170166, 519.0 ],
					"source" : [ "obj-128", 0 ]
				}

			}
, 			{
				"patchline" : 				{
					"destination" : [ "obj-147", 9 ],
					"disabled" : 0,
					"hidden" : 0,
					"midpoints" : [ 1362.503662, 282.0, 891.0, 282.0, 891.0, 168.0, 869.833435, 168.0 ],
					"source" : [ "obj-135", 0 ]
				}

			}
, 			{
				"patchline" : 				{
					"destination" : [ "obj-147", 8 ],
					"disabled" : 0,
					"hidden" : 0,
					"midpoints" : [ 1251.503662, 282.0, 891.0, 282.0, 891.0, 159.0, 803.388977, 159.0 ],
					"source" : [ "obj-136", 0 ]
				}

			}
, 			{
				"patchline" : 				{
					"destination" : [ "obj-147", 7 ],
					"disabled" : 0,
					"hidden" : 0,
					"midpoints" : [ 1143.670288, 282.0, 891.0, 282.0, 891.0, 159.0, 736.944519, 159.0 ],
					"source" : [ "obj-137", 0 ]
				}

			}
, 			{
				"patchline" : 				{
					"destination" : [ "obj-135", 0 ],
					"disabled" : 0,
					"hidden" : 0,
					"source" : [ "obj-140", 0 ]
				}

			}
, 			{
				"patchline" : 				{
					"destination" : [ "obj-136", 0 ],
					"disabled" : 0,
					"hidden" : 0,
					"source" : [ "obj-141", 0 ]
				}

			}
, 			{
				"patchline" : 				{
					"destination" : [ "obj-147", 6 ],
					"disabled" : 0,
					"hidden" : 0,
					"midpoints" : [ 1032.670166, 273.0, 891.0, 273.0, 891.0, 159.0, 670.500061, 159.0 ],
					"source" : [ "obj-144", 0 ]
				}

			}
, 			{
				"patchline" : 				{
					"destination" : [ "obj-137", 0 ],
					"disabled" : 0,
					"hidden" : 0,
					"source" : [ "obj-145", 0 ]
				}

			}
, 			{
				"patchline" : 				{
					"destination" : [ "obj-144", 0 ],
					"disabled" : 0,
					"hidden" : 0,
					"source" : [ "obj-146", 0 ]
				}

			}
, 			{
				"patchline" : 				{
					"destination" : [ "obj-26", 0 ],
					"disabled" : 0,
					"hidden" : 0,
					"source" : [ "obj-147", 0 ]
				}

			}
, 			{
				"patchline" : 				{
					"destination" : [ "obj-27", 0 ],
					"disabled" : 0,
					"hidden" : 0,
					"source" : [ "obj-147", 1 ]
				}

			}
, 			{
				"patchline" : 				{
					"destination" : [ "obj-147", 0 ],
					"disabled" : 0,
					"hidden" : 0,
					"midpoints" : [ 105.166565, 228.0, 81.0, 228.0, 81.0, 168.0, 271.833313, 168.0 ],
					"source" : [ "obj-148", 0 ]
				}

			}
, 			{
				"patchline" : 				{
					"destination" : [ "obj-151", 0 ],
					"disabled" : 0,
					"hidden" : 0,
					"source" : [ "obj-150", 0 ]
				}

			}
, 			{
				"patchline" : 				{
					"destination" : [ "obj-152", 0 ],
					"disabled" : 0,
					"hidden" : 0,
					"source" : [ "obj-151", 0 ]
				}

			}
, 			{
				"patchline" : 				{
					"destination" : [ "obj-67", 0 ],
					"disabled" : 0,
					"hidden" : 0,
					"midpoints" : [ 1136.166748, 442.666687, 1189.333374, 442.666687, 1189.333374, 325.333344, 1114.666748, 325.333344, 1114.666748, 396.0, 1073.670166, 396.0 ],
					"source" : [ "obj-152", 0 ]
				}

			}
, 			{
				"patchline" : 				{
					"destination" : [ "obj-60", 0 ],
					"disabled" : 0,
					"hidden" : 0,
					"source" : [ "obj-161", 0 ]
				}

			}
, 			{
				"patchline" : 				{
					"destination" : [ "obj-61", 0 ],
					"disabled" : 0,
					"hidden" : 0,
					"source" : [ "obj-166", 0 ]
				}

			}
, 			{
				"patchline" : 				{
					"destination" : [ "obj-62", 0 ],
					"disabled" : 0,
					"hidden" : 0,
					"source" : [ "obj-167", 0 ]
				}

			}
, 			{
				"patchline" : 				{
					"destination" : [ "obj-63", 0 ],
					"disabled" : 0,
					"hidden" : 0,
					"source" : [ "obj-168", 0 ]
				}

			}
, 			{
				"patchline" : 				{
					"destination" : [ "obj-107", 0 ],
					"disabled" : 0,
					"hidden" : 0,
					"midpoints" : [ 55.500008, 162.0, 249.0, 162.0, 249.0, 120.0, 1260.0, 120.0, 1260.0, 81.0, 1283.666748, 81.0 ],
					"source" : [ "obj-19", 1 ]
				}

			}
, 			{
				"patchline" : 				{
					"destination" : [ "obj-108", 0 ],
					"disabled" : 0,
					"hidden" : 0,
					"midpoints" : [ 17.500008, 162.0, 249.0, 162.0, 249.0, 120.0, 1158.0, 120.0, 1158.0, 84.0, 1172.666748, 84.0 ],
					"source" : [ "obj-19", 0 ]
				}

			}
, 			{
				"patchline" : 				{
					"destination" : [ "obj-147", 1 ],
					"disabled" : 0,
					"hidden" : 0,
					"midpoints" : [ 55.500008, 168.0, 338.277771, 168.0 ],
					"source" : [ "obj-19", 1 ]
				}

			}
, 			{
				"patchline" : 				{
					"destination" : [ "obj-147", 0 ],
					"disabled" : 0,
					"hidden" : 0,
					"midpoints" : [ 17.500008, 168.0, 271.833313, 168.0 ],
					"source" : [ "obj-19", 0 ]
				}

			}
, 			{
				"patchline" : 				{
					"destination" : [ "obj-82", 1 ],
					"disabled" : 0,
					"hidden" : 0,
					"midpoints" : [ 55.500008, 359.0, 171.166656, 359.0 ],
					"source" : [ "obj-19", 1 ]
				}

			}
, 			{
				"patchline" : 				{
					"destination" : [ "obj-82", 0 ],
					"disabled" : 0,
					"hidden" : 0,
					"midpoints" : [ 17.500008, 359.0, 100.166664, 359.0 ],
					"source" : [ "obj-19", 0 ]
				}

			}
, 			{
				"patchline" : 				{
					"destination" : [ "obj-96", 0 ],
					"disabled" : 0,
					"hidden" : 0,
					"midpoints" : [ 17.500008, 162.0, 249.0, 162.0, 249.0, 96.0, 930.0, 96.0, 930.0, 81.0, 953.833313, 81.0 ],
					"source" : [ "obj-19", 0 ]
				}

			}
, 			{
				"patchline" : 				{
					"destination" : [ "obj-98", 0 ],
					"disabled" : 0,
					"hidden" : 0,
					"midpoints" : [ 55.500008, 162.0, 249.0, 162.0, 249.0, 120.0, 1041.0, 120.0, 1041.0, 81.0, 1064.833374, 81.0 ],
					"source" : [ "obj-19", 1 ]
				}

			}
, 			{
				"patchline" : 				{
					"destination" : [ "obj-19", 0 ],
					"disabled" : 0,
					"hidden" : 0,
					"source" : [ "obj-21", 0 ]
				}

			}
, 			{
				"patchline" : 				{
					"destination" : [ "obj-19", 0 ],
					"disabled" : 0,
					"hidden" : 0,
					"source" : [ "obj-23", 0 ]
				}

			}
, 			{
				"patchline" : 				{
					"destination" : [ "obj-145", 0 ],
					"disabled" : 0,
					"hidden" : 0,
					"midpoints" : [ 1121.333374, 662.666687, 1121.333374, 814.666687, 1641.333374, 814.666687, 1641.333374, 20.0, 1441.333374, 20.0, 1441.333374, 174.666672, 1143.670288, 174.666672 ],
					"source" : [ "obj-24", 0 ]
				}

			}
, 			{
				"patchline" : 				{
					"destination" : [ "obj-64", 0 ],
					"disabled" : 0,
					"hidden" : 0,
					"source" : [ "obj-24", 0 ]
				}

			}
, 			{
				"patchline" : 				{
					"destination" : [ "obj-161", 1 ],
					"disabled" : 0,
					"hidden" : 0,
					"midpoints" : [ 419.499969, 879.0, 403.833344, 879.0 ],
					"source" : [ "obj-26", 2 ]
				}

			}
, 			{
				"patchline" : 				{
					"destination" : [ "obj-166", 1 ],
					"disabled" : 0,
					"hidden" : 0,
					"midpoints" : [ 419.499969, 879.0, 512.166626, 879.0 ],
					"source" : [ "obj-26", 2 ]
				}

			}
, 			{
				"patchline" : 				{
					"destination" : [ "obj-167", 1 ],
					"disabled" : 0,
					"hidden" : 0,
					"midpoints" : [ 419.499969, 879.0, 616.166626, 879.0 ],
					"source" : [ "obj-26", 2 ]
				}

			}
, 			{
				"patchline" : 				{
					"destination" : [ "obj-168", 1 ],
					"disabled" : 0,
					"hidden" : 0,
					"midpoints" : [ 419.499969, 879.0, 724.5, 879.0 ],
					"source" : [ "obj-26", 2 ]
				}

			}
, 			{
				"patchline" : 				{
					"destination" : [ "obj-86", 0 ],
					"disabled" : 0,
					"hidden" : 0,
					"source" : [ "obj-26", 1 ]
				}

			}
, 			{
				"patchline" : 				{
					"destination" : [ "obj-119", 0 ],
					"disabled" : 0,
					"hidden" : 0,
					"midpoints" : [ 718.5, 291.0, 974.333313, 291.0 ],
					"source" : [ "obj-27", 2 ]
				}

			}
, 			{
				"patchline" : 				{
					"destination" : [ "obj-87", 0 ],
					"disabled" : 0,
					"hidden" : 0,
					"source" : [ "obj-27", 1 ]
				}

			}
, 			{
				"patchline" : 				{
					"destination" : [ "obj-35", 0 ],
					"disabled" : 0,
					"hidden" : 0,
					"source" : [ "obj-37", 0 ]
				}

			}
, 			{
				"patchline" : 				{
					"destination" : [ "obj-35", 0 ],
					"disabled" : 0,
					"hidden" : 0,
					"source" : [ "obj-39", 0 ]
				}

			}
, 			{
				"patchline" : 				{
					"destination" : [ "obj-146", 0 ],
					"disabled" : 0,
					"hidden" : 0,
					"midpoints" : [ 896.0, 644.0, 896.0, 825.333374, 1650.666748, 825.333374, 1650.666748, 13.333334, 1429.333374, 13.333334, 1429.333374, 166.666672, 1032.670166, 166.666672 ],
					"source" : [ "obj-43", 0 ]
				}

			}
, 			{
				"patchline" : 				{
					"destination" : [ "obj-57", 0 ],
					"disabled" : 0,
					"hidden" : 0,
					"source" : [ "obj-43", 0 ]
				}

			}
, 			{
				"patchline" : 				{
					"destination" : [ "obj-43", 0 ],
					"disabled" : 0,
					"hidden" : 0,
					"source" : [ "obj-44", 0 ]
				}

			}
, 			{
				"patchline" : 				{
					"destination" : [ "obj-43", 1 ],
					"disabled" : 0,
					"hidden" : 0,
					"source" : [ "obj-45", 0 ]
				}

			}
, 			{
				"patchline" : 				{
					"destination" : [ "obj-24", 0 ],
					"disabled" : 0,
					"hidden" : 0,
					"source" : [ "obj-46", 0 ]
				}

			}
, 			{
				"patchline" : 				{
					"destination" : [ "obj-44", 0 ],
					"disabled" : 0,
					"hidden" : 0,
					"source" : [ "obj-47", 0 ]
				}

			}
, 			{
				"patchline" : 				{
					"destination" : [ "obj-50", 0 ],
					"disabled" : 0,
					"hidden" : 0,
					"source" : [ "obj-48", 0 ]
				}

			}
, 			{
				"patchline" : 				{
					"destination" : [ "obj-45", 1 ],
					"disabled" : 0,
					"hidden" : 0,
					"source" : [ "obj-49", 0 ]
				}

			}
, 			{
				"patchline" : 				{
					"destination" : [ "obj-24", 0 ],
					"disabled" : 0,
					"hidden" : 0,
					"source" : [ "obj-50", 0 ]
				}

			}
, 			{
				"patchline" : 				{
					"destination" : [ "obj-43", 0 ],
					"disabled" : 0,
					"hidden" : 0,
					"midpoints" : [ 810.833252, 646.333313, 857.333252, 646.333313, 857.333252, 607.333313, 871.833252, 607.333313 ],
					"source" : [ "obj-51", 0 ]
				}

			}
, 			{
				"patchline" : 				{
					"destination" : [ "obj-141", 0 ],
					"disabled" : 0,
					"hidden" : 0,
					"midpoints" : [ 1280.166748, 646.666687, 1465.333374, 646.666687, 1465.333374, 546.666687, 1657.333374, 546.666687, 1657.333374, 5.333333, 1417.333374, 5.333333, 1417.333374, 154.666672, 1380.0, 154.666672, 1380.0, 190.666672, 1251.503662, 190.666672 ],
					"source" : [ "obj-52", 0 ]
				}

			}
, 			{
				"patchline" : 				{
					"destination" : [ "obj-65", 0 ],
					"disabled" : 0,
					"hidden" : 0,
					"source" : [ "obj-52", 0 ]
				}

			}
, 			{
				"patchline" : 				{
					"destination" : [ "obj-51", 0 ],
					"disabled" : 0,
					"hidden" : 0,
					"source" : [ "obj-53", 0 ]
				}

			}
, 			{
				"patchline" : 				{
					"destination" : [ "obj-92", 0 ],
					"disabled" : 0,
					"hidden" : 0,
					"source" : [ "obj-54", 0 ]
				}

			}
, 			{
				"patchline" : 				{
					"destination" : [ "obj-45", 0 ],
					"disabled" : 0,
					"hidden" : 0,
					"source" : [ "obj-55", 0 ]
				}

			}
, 			{
				"patchline" : 				{
					"destination" : [ "obj-91", 0 ],
					"disabled" : 0,
					"hidden" : 0,
					"source" : [ "obj-56", 0 ]
				}

			}
, 			{
				"patchline" : 				{
					"destination" : [ "obj-140", 0 ],
					"disabled" : 0,
					"hidden" : 0,
					"midpoints" : [ 1541.333374, 657.333374, 1541.333374, 796.0, 1630.666748, 796.0, 1630.666748, 30.666668, 1450.666748, 30.666668, 1450.666748, 186.666672, 1362.503662, 186.666672 ],
					"source" : [ "obj-58", 0 ]
				}

			}
, 			{
				"patchline" : 				{
					"destination" : [ "obj-66", 0 ],
					"disabled" : 0,
					"hidden" : 0,
					"source" : [ "obj-58", 0 ]
				}

			}
, 			{
				"patchline" : 				{
					"destination" : [ "obj-29", 0 ],
					"disabled" : 0,
					"hidden" : 0,
					"source" : [ "obj-60", 0 ]
				}

			}
, 			{
				"patchline" : 				{
					"destination" : [ "obj-30", 0 ],
					"disabled" : 0,
					"hidden" : 0,
					"source" : [ "obj-61", 0 ]
				}

			}
, 			{
				"patchline" : 				{
					"destination" : [ "obj-32", 0 ],
					"disabled" : 0,
					"hidden" : 0,
					"source" : [ "obj-62", 0 ]
				}

			}
, 			{
				"patchline" : 				{
					"destination" : [ "obj-31", 0 ],
					"disabled" : 0,
					"hidden" : 0,
					"source" : [ "obj-63", 0 ]
				}

			}
, 			{
				"patchline" : 				{
					"destination" : [ "obj-72", 0 ],
					"disabled" : 0,
					"hidden" : 0,
					"source" : [ "obj-67", 0 ]
				}

			}
, 			{
				"patchline" : 				{
					"destination" : [ "obj-46", 0 ],
					"disabled" : 0,
					"hidden" : 0,
					"source" : [ "obj-72", 0 ]
				}

			}
, 			{
				"patchline" : 				{
					"destination" : [ "obj-52", 0 ],
					"disabled" : 0,
					"hidden" : 0,
					"source" : [ "obj-76", 0 ]
				}

			}
, 			{
				"patchline" : 				{
					"destination" : [ "obj-58", 0 ],
					"disabled" : 0,
					"hidden" : 0,
					"source" : [ "obj-80", 0 ]
				}

			}
, 			{
				"patchline" : 				{
					"destination" : [ "obj-82", 0 ],
					"disabled" : 0,
					"hidden" : 0,
					"source" : [ "obj-83", 0 ]
				}

			}
, 			{
				"patchline" : 				{
					"destination" : [ "obj-56", 0 ],
					"disabled" : 0,
					"hidden" : 0,
					"source" : [ "obj-86", 0 ]
				}

			}
, 			{
				"patchline" : 				{
					"destination" : [ "obj-54", 0 ],
					"disabled" : 0,
					"hidden" : 0,
					"source" : [ "obj-87", 0 ]
				}

			}
, 			{
				"patchline" : 				{
					"destination" : [ "obj-112", 0 ],
					"disabled" : 0,
					"hidden" : 0,
					"midpoints" : [ 345.666626, 324.0, 271.833313, 324.0 ],
					"source" : [ "obj-91", 0 ]
				}

			}
, 			{
				"patchline" : 				{
					"destination" : [ "obj-161", 0 ],
					"disabled" : 0,
					"hidden" : 0,
					"midpoints" : [ 383.666626, 879.0, 363.833344, 879.0 ],
					"source" : [ "obj-91", 1 ]
				}

			}
, 			{
				"patchline" : 				{
					"destination" : [ "obj-166", 0 ],
					"disabled" : 0,
					"hidden" : 0,
					"midpoints" : [ 383.666626, 879.0, 472.166656, 879.0 ],
					"source" : [ "obj-91", 1 ]
				}

			}
, 			{
				"patchline" : 				{
					"destination" : [ "obj-167", 0 ],
					"disabled" : 0,
					"hidden" : 0,
					"midpoints" : [ 383.666626, 879.0, 576.166626, 879.0 ],
					"source" : [ "obj-91", 1 ]
				}

			}
, 			{
				"patchline" : 				{
					"destination" : [ "obj-168", 0 ],
					"disabled" : 0,
					"hidden" : 0,
					"midpoints" : [ 383.666626, 879.0, 684.5, 879.0 ],
					"source" : [ "obj-91", 1 ]
				}

			}
, 			{
				"patchline" : 				{
					"destination" : [ "obj-114", 0 ],
					"disabled" : 0,
					"hidden" : 0,
					"source" : [ "obj-92", 0 ]
				}

			}
, 			{
				"patchline" : 				{
					"destination" : [ "obj-150", 0 ],
					"disabled" : 0,
					"hidden" : 0,
					"midpoints" : [ 682.666748, 341.333344, 1136.166748, 341.333344 ],
					"source" : [ "obj-92", 1 ]
				}

			}
, 			{
				"patchline" : 				{
					"destination" : [ "obj-101", 0 ],
					"disabled" : 0,
					"hidden" : 0,
					"source" : [ "obj-96", 0 ]
				}

			}
, 			{
				"patchline" : 				{
					"destination" : [ "obj-109", 0 ],
					"disabled" : 0,
					"hidden" : 0,
					"source" : [ "obj-98", 0 ]
				}

			}
 ],
		"parameters" : 		{
			"obj-48" : [ "number", "number", 0 ]
		}
,
		"dependency_cache" : [  ],
		"autosave" : 0
	}

}
