{
	"patcher" : 	{
		"fileversion" : 1,
		"appversion" : 		{
			"major" : 7,
			"minor" : 1,
			"revision" : 0,
			"architecture" : "x86",
			"modernui" : 1
		}
,
		"rect" : [ 63.0, 104.0, 1259.0, 762.0 ],
		"bglocked" : 0,
		"openinpresentation" : 0,
		"default_fontsize" : 12.0,
		"default_fontface" : 0,
		"default_fontname" : "Arial",
		"gridonopen" : 1,
		"gridsize" : [ 15.0, 15.0 ],
		"gridsnaponopen" : 1,
		"objectsnaponopen" : 1,
		"statusbarvisible" : 2,
		"toolbarvisible" : 1,
		"lefttoolbarpinned" : 0,
		"toptoolbarpinned" : 0,
		"righttoolbarpinned" : 0,
		"bottomtoolbarpinned" : 0,
		"toolbars_unpinned_last_save" : 0,
		"tallnewobj" : 0,
		"boxanimatetime" : 200,
		"enablehscroll" : 1,
		"enablevscroll" : 1,
		"devicewidth" : 0.0,
		"description" : "",
		"digest" : "",
		"tags" : "",
		"style" : "",
		"subpatcher_template" : "",
		"boxes" : [ 			{
				"box" : 				{
					"id" : "obj-34",
					"linecount" : 3,
					"maxclass" : "comment",
					"numinlets" : 1,
					"numoutlets" : 0,
					"patching_rect" : [ 413.333313, 708.333374, 150.0, 47.0 ],
					"style" : "",
					"text" : "insert routing based on probabilities triggered by onset detection"
				}

			}
, 			{
				"box" : 				{
					"id" : "obj-31",
					"maxclass" : "newobj",
					"numinlets" : 3,
					"numoutlets" : 1,
					"outlettype" : [ "signal" ],
					"patching_rect" : [ 335.333313, 733.333374, 76.0, 22.0 ],
					"style" : "",
					"text" : "record~ art4"
				}

			}
, 			{
				"box" : 				{
					"id" : "obj-32",
					"maxclass" : "newobj",
					"numinlets" : 3,
					"numoutlets" : 1,
					"outlettype" : [ "signal" ],
					"patching_rect" : [ 227.0, 733.333374, 76.0, 22.0 ],
					"style" : "",
					"text" : "record~ art3"
				}

			}
, 			{
				"box" : 				{
					"id" : "obj-30",
					"maxclass" : "newobj",
					"numinlets" : 3,
					"numoutlets" : 1,
					"outlettype" : [ "signal" ],
					"patching_rect" : [ 122.999992, 733.333374, 76.0, 22.0 ],
					"style" : "",
					"text" : "record~ art2"
				}

			}
, 			{
				"box" : 				{
					"id" : "obj-29",
					"maxclass" : "newobj",
					"numinlets" : 3,
					"numoutlets" : 1,
					"outlettype" : [ "signal" ],
					"patching_rect" : [ 14.666665, 733.333374, 76.0, 22.0 ],
					"style" : "",
					"text" : "record~ art1"
				}

			}
, 			{
				"box" : 				{
					"id" : "obj-27",
					"maxclass" : "newobj",
					"numinlets" : 1,
					"numoutlets" : 3,
					"outlettype" : [ "float", "float", "bang" ],
					"patching_rect" : [ 561.333374, 204.000015, 288.0, 22.0 ],
					"style" : "",
					"text" : "fzero~"
				}

			}
, 			{
				"box" : 				{
					"id" : "obj-26",
					"maxclass" : "newobj",
					"numinlets" : 1,
					"numoutlets" : 3,
					"outlettype" : [ "float", "float", "bang" ],
					"patching_rect" : [ 262.333313, 204.000015, 288.0, 22.0 ],
					"style" : "",
					"text" : "fzero~"
				}

			}
, 			{
				"box" : 				{
					"id" : "obj-25",
					"linecount" : 2,
					"maxclass" : "comment",
					"numinlets" : 1,
					"numoutlets" : 0,
					"patching_rect" : [ 69.333328, 118.999992, 154.0, 33.0 ],
					"style" : "",
					"text" : "Bringing in audio from two microphones"
				}

			}
, 			{
				"box" : 				{
					"id" : "obj-23",
					"maxclass" : "message",
					"numinlets" : 2,
					"numoutlets" : 1,
					"outlettype" : [ "" ],
					"patching_rect" : [ 90.666664, 94.999992, 33.0, 22.0 ],
					"style" : "",
					"text" : "stop"
				}

			}
, 			{
				"box" : 				{
					"id" : "obj-21",
					"maxclass" : "message",
					"numinlets" : 2,
					"numoutlets" : 1,
					"outlettype" : [ "" ],
					"patching_rect" : [ 8.000007, 94.999992, 74.0, 22.0 ],
					"style" : "",
					"text" : "startwindow"
				}

			}
, 			{
				"box" : 				{
					"id" : "obj-19",
					"maxclass" : "newobj",
					"numinlets" : 1,
					"numoutlets" : 2,
					"outlettype" : [ "signal", "signal" ],
					"patching_rect" : [ 8.000007, 130.666672, 57.0, 22.0 ],
					"style" : "",
					"text" : "adc~ 1 2"
				}

			}
, 			{
				"box" : 				{
					"buffername" : "art4",
					"id" : "obj-18",
					"maxclass" : "waveform~",
					"numinlets" : 5,
					"numoutlets" : 6,
					"outlettype" : [ "float", "float", "float", "float", "list", "" ],
					"patching_rect" : [ 603.0, 40.0, 138.666656, 44.0 ],
					"style" : ""
				}

			}
, 			{
				"box" : 				{
					"buffername" : "art3",
					"id" : "obj-17",
					"maxclass" : "waveform~",
					"numinlets" : 5,
					"numoutlets" : 6,
					"outlettype" : [ "float", "float", "float", "float", "list", "" ],
					"patching_rect" : [ 459.0, 40.0, 138.666656, 44.0 ],
					"style" : ""
				}

			}
, 			{
				"box" : 				{
					"buffername" : "art2",
					"id" : "obj-16",
					"maxclass" : "waveform~",
					"numinlets" : 5,
					"numoutlets" : 6,
					"outlettype" : [ "float", "float", "float", "float", "list", "" ],
					"patching_rect" : [ 315.0, 40.0, 138.666656, 44.0 ],
					"style" : ""
				}

			}
, 			{
				"box" : 				{
					"buffername" : "art1",
					"id" : "obj-15",
					"maxclass" : "waveform~",
					"numinlets" : 5,
					"numoutlets" : 6,
					"outlettype" : [ "float", "float", "float", "float", "list", "" ],
					"patching_rect" : [ 171.0, 40.0, 138.666656, 44.0 ],
					"style" : ""
				}

			}
, 			{
				"box" : 				{
					"id" : "obj-14",
					"linecount" : 7,
					"maxclass" : "comment",
					"numinlets" : 1,
					"numoutlets" : 0,
					"patching_rect" : [ 1486.0, 180.333328, 162.0, 100.0 ],
					"style" : "",
					"text" : "Decisions:\n- computer decides when to record to a buffer, and to which buffer\n- computer decides how to play back or distort buffer contents"
				}

			}
, 			{
				"box" : 				{
					"id" : "obj-12",
					"maxclass" : "newobj",
					"numinlets" : 1,
					"numoutlets" : 2,
					"outlettype" : [ "float", "bang" ],
					"patching_rect" : [ 669.666626, 11.0, 72.0, 22.0 ],
					"style" : "",
					"text" : "buffer~ art4"
				}

			}
, 			{
				"box" : 				{
					"id" : "obj-11",
					"maxclass" : "newobj",
					"numinlets" : 1,
					"numoutlets" : 2,
					"outlettype" : [ "float", "bang" ],
					"patching_rect" : [ 525.666626, 11.0, 72.0, 22.0 ],
					"style" : "",
					"text" : "buffer~ art3"
				}

			}
, 			{
				"box" : 				{
					"id" : "obj-10",
					"maxclass" : "newobj",
					"numinlets" : 1,
					"numoutlets" : 2,
					"outlettype" : [ "float", "bang" ],
					"patching_rect" : [ 381.666656, 11.0, 72.0, 22.0 ],
					"style" : "",
					"text" : "buffer~ art2"
				}

			}
, 			{
				"box" : 				{
					"id" : "obj-9",
					"maxclass" : "newobj",
					"numinlets" : 1,
					"numoutlets" : 2,
					"outlettype" : [ "float", "bang" ],
					"patching_rect" : [ 237.666656, 11.0, 72.0, 22.0 ],
					"style" : "",
					"text" : "buffer~ art1"
				}

			}
, 			{
				"box" : 				{
					"id" : "obj-8",
					"linecount" : 11,
					"maxclass" : "comment",
					"numinlets" : 1,
					"numoutlets" : 0,
					"patching_rect" : [ 1498.0, 24.333334, 150.0, 154.0 ],
					"style" : "",
					"text" : "Objective:\nMake a piece of approximately 73 minutes in duration using improvisations on found objects. Make the computer an \"autonomous\" agent based on incoming signal in how it treats the signals and buffers."
				}

			}
, 			{
				"box" : 				{
					"id" : "obj-6",
					"linecount" : 2,
					"maxclass" : "comment",
					"numinlets" : 1,
					"numoutlets" : 0,
					"patching_rect" : [ 3.0, 51.0, 150.0, 33.0 ],
					"style" : "",
					"text" : "Aka: Post Hoc Ergo Proctor Hoc"
				}

			}
, 			{
				"box" : 				{
					"id" : "obj-4",
					"linecount" : 3,
					"maxclass" : "comment",
					"numinlets" : 1,
					"numoutlets" : 0,
					"patching_rect" : [ 3.0, 2.0, 156.0, 47.0 ],
					"style" : "",
					"text" : "Free Love Festival Bullshit Piece about Shit and Fuck The Arts"
				}

			}
 ],
		"lines" : [ 			{
				"patchline" : 				{
					"destination" : [ "obj-26", 0 ],
					"disabled" : 0,
					"hidden" : 0,
					"midpoints" : [ 17.500008, 173.333328, 271.833313, 173.333328 ],
					"source" : [ "obj-19", 0 ]
				}

			}
, 			{
				"patchline" : 				{
					"destination" : [ "obj-27", 0 ],
					"disabled" : 0,
					"hidden" : 0,
					"midpoints" : [ 55.500008, 173.333344, 570.833374, 173.333344 ],
					"source" : [ "obj-19", 1 ]
				}

			}
, 			{
				"patchline" : 				{
					"destination" : [ "obj-19", 0 ],
					"disabled" : 0,
					"hidden" : 0,
					"source" : [ "obj-21", 0 ]
				}

			}
, 			{
				"patchline" : 				{
					"destination" : [ "obj-19", 0 ],
					"disabled" : 0,
					"hidden" : 0,
					"source" : [ "obj-23", 0 ]
				}

			}
 ],
		"dependency_cache" : [  ],
		"autosave" : 0
	}

}
